<svg xmlns="http://www.w3.org/2000/svg" opacity=".77" viewBox="0 0 800 800"><defs><linearGradient id="a" x1="50%" x2="50%" y1="0%" y2="100%" gradientTransform="rotate(270)"><stop offset="0%" stop-color="hsla(241, 77%, 50%, 1.00)"/><stop offset="100%" stop-color="hsla(55, 90%, 55%, 1.00)"/></linearGradient></defs><g fill="none" stroke="url(#a)" stroke-linecap="round" stroke-width="2.5" transform="translate(-5 310.001091)"><path d="M10 10c14.58333333 5.41666667 38.75 33.08333333 70 26 31.25-7.08333333 46.66666667-59.375 80-60s46.66666667 53.04166667 80 57c33.33333333 3.95833333 46.66666667-36.54166667 80-38 33.33333333-1.45833333 46.66666667 29.54166667 80 31 33.33333333 1.45833333 46.66666667-26.5 80-24s46.66666667 38.5 80 36 46.66666667-48.83333333 80-48c33.33333333.83333333 46.66666667 51.58333333 80 52 33.33333333.41666667 63.33333333-39.58333333 80-50M10 172c14.58333333 5.41666667 38.75 33.08333333 70 26 31.25-7.08333333 46.66666667-59.375 80-60s46.66666667 53.04166667 80 57c33.33333333 3.95833333 46.66666667-36.54166667 80-38 33.33333333-1.45833333 46.66666667 29.54166667 80 31 33.33333333 1.45833333 46.66666667-26.5 80-24s46.66666667 38.5 80 36 46.66666667-48.83333333 80-48c33.33333333.83333333 46.66666667 51.58333333 80 52 33.33333333.41666667 63.33333333-39.58333333 80-50"/><path d="M10 145c14.58333333 5.41666667 38.75 33.08333333 70 26 31.25-7.08333333 46.66666667-59.375 80-60s46.66666667 53.04166667 80 57c33.33333333 3.95833333 46.66666667-36.54166667 80-38 33.33333333-1.45833333 46.66666667 29.54166667 80 31 33.33333333 1.45833333 46.66666667-26.5 80-24s46.66666667 38.5 80 36 46.66666667-48.83333333 80-48c33.33333333.83333333 46.66666667 51.58333333 80 52 33.33333333.41666667 63.33333333-39.58333333 80-50"/><path d="M10 118c14.58333333 5.41666667 38.75 33.08333333 70 26 31.25-7.08333333 46.66666667-59.375 80-60s46.66666667 53.04166667 80 57c33.33333333 3.95833333 46.66666667-36.54166667 80-38 33.33333333-1.45833333 46.66666667 29.54166667 80 31 33.33333333 1.45833333 46.66666667-26.5 80-24s46.66666667 38.5 80 36 46.66666667-48.83333333 80-48c33.33333333.83333333 46.66666667 51.58333333 80 52 33.33333333.41666667 63.33333333-39.58333333 80-50"/><path d="M10 91c14.58333333 5.41666667 38.75 33.08333333 70 26 31.25-7.08333333 46.66666667-59.375 80-60s46.66666667 53.04166667 80 57c33.33333333 3.95833333 46.66666667-36.54166667 80-38 33.33333333-1.45833333 46.66666667 29.54166667 80 31 33.33333333 1.45833333 46.66666667-26.5 80-24s46.66666667 38.5 80 36 46.66666667-48.83333333 80-48c33.33333333.83333333 46.66666667 51.58333333 80 52 33.33333333.41666667 63.33333333-39.58333333 80-50"/><path d="M10 64c14.58333333 5.41666667 38.75 33.08333333 70 26 31.25-7.08333333 46.66666667-59.375 80-60s46.66666667 53.04166667 80 57c33.33333333 3.95833333 46.66666667-36.54166667 80-38 33.33333333-1.45833333 46.66666667 29.54166667 80 31 33.33333333 1.45833333 46.66666667-26.5 80-24s46.66666667 38.5 80 36 46.66666667-48.83333333 80-48c33.33333333.83333333 46.66666667 51.58333333 80 52 33.33333333.41666667 63.33333333-39.58333333 80-50"/><path d="M10 37c14.58333333 5.41666667 38.75 33.08333333 70 26 31.25-7.08333333 46.66666667-59.375 80-60s46.66666667 53.04166667 80 57c33.33333333 3.95833333 46.66666667-36.54166667 80-38 33.33333333-1.45833333 46.66666667 29.54166667 80 31 33.33333333 1.45833333 46.66666667-26.5 80-24s46.66666667 38.5 80 36 46.66666667-48.83333333 80-48c33.33333333.83333333 46.66666667 51.58333333 80 52 33.33333333.41666667 63.33333333-39.58333333 80-50"/></g></svg>